<!--?xml version="1.0" encoding="utf-8"?-->
<!-- Generator: Adobe Illustrator 15.1.0, SVG Export Plug-In . SVG Version: 6.00 Build 0)  -->

<svg version="1.1" id="_x32_" xmlns="http://www.w3.org/2000/svg" xmlns:xlink="http://www.w3.org/1999/xlink" x="0px" y="0px" width="512px" height="512px" viewBox="0 0 512 512" style="width: 256px; height: 256px; opacity: 1;" xml:space="preserve">
<style type="text/css">

	.st0{fill:#4B4B4B;}

</style>
<g>
	<path class="st0" d="M148.039,507.25c-0.047,0-0.094,0-0.125-0.016l-0.422-0.047L148.039,507.25z" style="fill: rgb(255, 255, 255);"></path>
	<path class="st0" d="M494.789,445.828L494.789,445.828c0.016-15.078-2.719-28.953-7.594-41.297
		c-3.641-9.281-8.438-17.688-13.953-25.281c-8.313-11.375-18.188-20.969-28.531-29.438c-10.391-8.469-21.266-15.813-31.813-22.656
		c-10.953-7.094-19.984-13.438-27.219-18.813c19.563-19.969,34.563-44.5,43.25-71.844c20.047-4.125,35.297-24.75,35.297-49.594
		c0-23.5-13.609-43.188-32.016-48.781c-8.032-32.688-24.875-61.969-47.907-84.969C351.539,20.344,306.054,0,256.007,0
		c-50.063,0-95.547,20.344-128.313,53.156c-23.031,23-39.875,52.281-47.922,84.969c-18.391,5.594-32.016,25.281-32.016,48.781
		c0,24.844,15.266,45.469,35.297,49.594c8.703,27.344,23.703,51.875,43.266,71.875c-7.234,5.344-16.266,11.688-27.219,18.781
		c-9.375,6.078-19,12.563-28.328,19.875c-13.938,10.953-27.266,23.797-37.281,40.094c-4.984,8.141-9.094,17.125-11.922,26.938
		c-2.844,9.828-4.359,20.453-4.359,31.766l0,0c0,0.078,0,0.109,0,0.172c0,1.828,0.219,4.219,0.969,6.938
		c1.281,4.813,4.203,10.484,9.188,15.813c3.719,4.047,8.563,7.938,14.75,11.641c9.313,5.578,21.688,10.766,38.766,15.359
		c17.063,4.594,38.828,8.594,67.031,11.484l0.094,0.016c28.75,2.969,64.172,4.75,108.016,4.75c39.969,0,72.938-1.5,100.234-3.984
		h0.016c30.531-2.797,53.953-6.844,72.188-11.547c13.688-3.547,24.453-7.453,33.094-11.594c6.484-3.125,11.781-6.391,16.141-9.781
		c6.547-5.063,10.984-10.531,13.656-15.813c2.703-5.25,3.469-10.141,3.438-13.281C494.789,445.938,494.789,445.906,494.789,445.828z
		 M154.007,79.484c14.906-14.891,32.969-26.5,53.141-33.766v45.813l48.859-11.516l48.844,11.516V45.719
		c20.172,7.266,38.234,18.875,53.141,33.766c26.125,26.141,42.234,62.109,42.25,101.984c-0.016,39.875-16.125,75.844-42.25,102
		c-26.156,26.125-62.109,42.234-101.984,42.25c-39.891-0.016-75.844-16.125-102-42.25c-26.141-26.156-42.234-62.125-42.25-102
		C111.773,141.594,127.867,105.625,154.007,79.484z M171.82,417.938h168.359v54.031c-23.469,1.75-51.25,2.813-84.156,2.813
		c-32.953,0-60.75-1.047-84.203-2.813V417.938z M454.82,445.719c-4,3.125-12.625,8.063-28.781,12.813
		c-13.547,4-32.407,7.891-57.954,10.844v-54.313c0.016-6.859-2.797-13.219-7.313-17.719c-4.5-4.516-10.859-7.328-17.703-7.313
		H168.898c-6.859-0.016-13.203,2.813-17.688,7.344c-4.5,4.469-7.313,10.828-7.313,17.688v54.281
		c-23.156-2.672-40.828-6.109-54.016-9.719c-11-3-18.922-6.109-24.422-8.859c-4.125-2.078-6.891-3.938-8.672-5.344
		c-1.094-0.891-1.797-1.578-2.234-2.078c0.266-9.563,2-17.781,4.906-25.219c2.375-6.031,5.547-11.625,9.422-16.969
		c5.813-8.016,13.313-15.453,21.953-22.5c8.641-7.063,18.406-13.719,28.5-20.25c15.563-10.094,27.578-18.813,36.453-25.656
		c28.719,19.047,63.203,30.188,100.219,30.188c37,0,71.484-11.141,100.203-30.203c8.875,6.859,20.891,15.578,36.453,25.672
		c8.969,5.797,17.688,11.703,25.578,17.906c11.86,9.297,21.766,19.219,28.516,30.266c3.391,5.547,6.047,11.391,7.906,17.797
		c1.641,5.734,2.609,11.969,2.813,18.938C456.977,443.875,456.148,444.688,454.82,445.719z" style="fill: rgb(255, 255, 255);"></path>
	<path class="st0" d="M256.007,283.844c58.547,0,106.031-36.813,106.031-82.219s-47.484-71.344-106.031-71.344
		c-58.563,0-106.047,25.938-106.047,71.344S197.445,283.844,256.007,283.844z M211.07,162.844c14.563,0,26.375,11.813,26.375,26.375
		s-11.813,26.375-26.375,26.375s-26.375-11.813-26.375-26.375S196.507,162.844,211.07,162.844z" style="fill: rgb(255, 255, 255);"></path>
	<path class="st0" d="M312.398,460.656c6.422,0,11.625-5.188,11.625-11.625c0-6.422-5.203-11.641-11.625-11.641
		s-11.641,5.219-11.641,11.641C300.757,455.469,305.976,460.656,312.398,460.656z" style="fill: rgb(255, 255, 255);"></path>
</g>
</svg>
