<!--?xml version="1.0" encoding="utf-8"?-->
<!-- Generator: Adobe Illustrator 18.1.1, SVG Export Plug-In . SVG Version: 6.00 Build 0)  -->

<svg version="1.1" id="_x32_" xmlns="http://www.w3.org/2000/svg" xmlns:xlink="http://www.w3.org/1999/xlink" x="0px" y="0px" viewBox="0 0 512 512" style="width: 256px; height: 256px; opacity: 1;" xml:space="preserve">
<style type="text/css">
	.st0{fill:#4B4B4B;}
</style>
<g>
	<polygon class="st0" points="211.663,56.625 109.554,0 40.796,123.997 142.905,180.614 	" style="fill: rgb(250, 250, 250);"></polygon>
	<polygon class="st0" points="309.439,250.058 358.771,161.103 216.533,82.23 167.208,171.186 	" style="fill: rgb(250, 250, 250);"></polygon>
	<polygon class="st0" points="366.626,181.331 330.759,246.014 396.392,282.42 432.267,217.721 	" style="fill: rgb(250, 250, 250);"></polygon>
	<polygon class="st0" points="449.325,221.368 408.517,294.957 430.397,307.098 471.204,233.508 	" style="fill: rgb(250, 250, 250);"></polygon>
	<path class="st0" d="M258.346,303.092h34.098v-22.239H187.663v22.239h34.106l-114.428,157.73c-3.11,4.145-2.268,10.02,1.877,13.138
		c4.146,3.101,10.029,2.26,13.138-1.886l105.74-136.932l2.579,167.478c0,5.174,4.2,9.381,9.382,9.381
		c5.182,0,9.382-4.208,9.382-9.381l2.579-167.478l105.74,136.932c3.109,4.146,8.992,4.987,13.137,1.886
		c4.146-3.118,4.987-8.992,1.878-13.138L258.346,303.092z" style="fill: rgb(250, 250, 250);"></path>
	<path class="st0" d="M221.426,249.996c0,10.293,8.337,18.639,18.631,18.639c10.293,0,18.631-8.346,18.631-18.639
		c0-10.293-8.338-18.638-18.631-18.638C229.763,231.358,221.426,239.703,221.426,249.996z" style="fill: rgb(250, 250, 250);"></path>
</g>
</svg>
